<svg xmlns="http://www.w3.org/2000/svg" width="1600" height="1000" viewBox="0 0 1600 1000"><defs><linearGradient id="b" x2="1" y2="1"><stop stop-color="#89a383"/><stop offset="1" stop-color="#193c2b"/></linearGradient><pattern id="p" width="350" height="420" patternUnits="userSpaceOnUse"><path d="M170 430Q70 190 140 30M170 430Q290 210 280 100" stroke="#8b9c66" stroke-width="9" fill="none"/><g fill="#587d48"><ellipse cx="110" cy="130" rx="55" ry="115" transform="rotate(-35 110 130)"/><ellipse cx="240" cy="240" rx="55" ry="110" transform="rotate(40 240 240)"/><ellipse cx="150" cy="330" rx="48" ry="95" transform="rotate(-40 150 330)"/></g></pattern></defs><rect width="1600" height="1000" fill="url(#b)"/><path d="M0 300L800 0l800 300M400 0v1000M800 0v1000M1200 0v1000M0 350h1600M0 700h1600" stroke="#c2ceb2" opacity=".24" stroke-width="13"/><rect x="600" y="80" width="1000" height="920" fill="url(#p)"/><rect y="940" width="1600" height="60" fill="#253c29"/></svg>