<svg xmlns="http://www.w3.org/2000/svg" viewBox="0 0 300 340"><rect width="300" height="340" fill="#e7e5dc"/><ellipse cx="150" cy="308" rx="70" ry="12" fill="#354e35" opacity=".12"/><path d="M150 242 Q99 160 99 126" fill="none" stroke="#456347" stroke-width="3"/><ellipse cx="99" cy="148" rx="20" ry="32" fill="#315c3d" transform="rotate(-42 99 148)"/><path d="M99 126v44" stroke="#99ad71" opacity=".55"/><path d="M150 242 Q116 160 116 109" fill="none" stroke="#456347" stroke-width="3"/><ellipse cx="116" cy="131" rx="20" ry="32" fill="#63814c" transform="rotate(-28 116 131)"/><path d="M116 109v44" stroke="#99ad71" opacity=".55"/><path d="M150 242 Q133 160 133 92" fill="none" stroke="#456347" stroke-width="3"/><ellipse cx="133" cy="114" rx="20" ry="32" fill="#477453" transform="rotate(-14 133 114)"/><path d="M133 92v44" stroke="#99ad71" opacity=".55"/><path d="M150 242 Q150 160 150 75" fill="none" stroke="#456347" stroke-width="3"/><ellipse cx="150" cy="97" rx="20" ry="32" fill="#315c3d" transform="rotate(0 150 97)"/><path d="M150 75v44" stroke="#99ad71" opacity=".55"/><path d="M150 242 Q167 160 167 92" fill="none" stroke="#456347" stroke-width="3"/><ellipse cx="167" cy="114" rx="20" ry="32" fill="#63814c" transform="rotate(14 167 114)"/><path d="M167 92v44" stroke="#99ad71" opacity=".55"/><path d="M150 242 Q184 160 184 109" fill="none" stroke="#456347" stroke-width="3"/><ellipse cx="184" cy="131" rx="20" ry="32" fill="#477453" transform="rotate(28 184 131)"/><path d="M184 109v44" stroke="#99ad71" opacity=".55"/><path d="M150 242 Q201 160 201 126" fill="none" stroke="#456347" stroke-width="3"/><ellipse cx="201" cy="148" rx="20" ry="32" fill="#315c3d" transform="rotate(42 201 148)"/><path d="M201 126v44" stroke="#99ad71" opacity=".55"/><path d="M99 234h102l-13 66h-76z" fill="#bf8465"/><rect x="95" y="229" width="110" height="14" rx="3" fill="#cd9475"/></svg>